<svg height="58" viewBox="0 0 183 58" width="183" xmlns="http://www.w3.org/2000/svg"><g fill="#fff" fill-rule="evenodd"><path d="m69 24.029703c-.333335.5280554-.899996 1.1386104-1.7 1.8316831-.800004.6930728-1.733328 1.3696337-2.8 2.029703s-2.2499935 1.2871258-3.55 1.8811881c-1.3000065.5940624-2.61666 1.089107-3.95 1.4851485-.266668 2.7722911-.866662 5.6765525-1.8 8.7128713s-2.06666 5.8250698-3.4 8.3663367c-1.33334 2.5412668-2.799992 4.6204539-4.4 6.2376237s-3.199992 2.4257426-4.8 2.4257426c-.66667 0-1.5499945-.1980178-2.65-.5940594s-2.1666615-1.023098-3.2-1.8811881-1.916663-1.8976837-2.65-3.1188119-1.1-2.6897604-1.1-4.4059406.199998-3.6633554.6-5.8415842c.400002-2.1782287.9499965-4.3729262 1.65-6.5841584s1.5666615-4.3729267 2.6-6.4851485 2.149994-3.9933911 3.35-5.6435643c1.200006-1.6501733 2.4833265-2.9702921 3.85-3.9603961 1.3666735-.9901039 2.783326-1.4851485 4.25-1.4851485.733337 0 1.4499965.2475223 2.15.7425743.7000035.4950519 1.38333 1.1221084 2.05 1.8811881s1.2833305 1.5841539 1.85 2.4752475 1.083331 1.6996663 1.55 2.4257426l.3 2.2772277c1.733342-.1320139 3.4499915-.4290406 5.15-.8910891s3.916653-1.089105 6.65-1.8811881zm-19.5 8.3168317c-1.000005-.1980208-1.5-1.1881099-1.5-2.9702971 0-.7260762.0833325-1.5511505.25-2.4752475s.349999-1.8811832.55-2.8712871c-.933338 1.1221178-1.8833285 2.7557648-2.85 4.9009901-.9666715 2.1452252-1.8333295 4.4389317-2.6 6.8811881s-1.3999975 4.8184703-1.9 7.1287129c-.5000025 2.3102425-.75 4.1584089-.75 5.5445544 0 1.5841664.33333 2.3762376 1 2.3762376s1.4499955-.544549 2.35-1.6336633c.9000045-1.0891144 1.783329-2.5247436 2.65-4.3069307s1.699996-3.7788669 2.5-5.990099c.800004-2.2112322 1.433331-4.4389327 1.9-6.6831683-.333335.0660069-.6499985.0990099-.95.0990099z"/><path d="m39.9912495 30.7058824c.0670862.7358745-.2515683 1.9400147-.955973 3.6124567-.7044046 1.672442-1.6939107 3.5121007-2.9685477 5.5190311-1.274637 2.0069305-2.7672817 4.0807275-4.4779787 6.2214533-1.7106971 2.1407258-3.5219962 4.0974537-5.4339518 5.8702422-1.9119555 1.7727886-3.8238824 3.2277914-5.735838 4.3650519-1.9119555 1.1372606-3.7064834 1.7058824-5.3836373 1.7058824-1.4088094 0-2.8846828-.2843109-4.4276644-.8529412-1.54298171-.5686303-3.00208379-1.4048387-4.37735006-2.5086505-1.37526627-1.1038117-2.58279903-2.4417453-3.62263451-4.0138408-1.03983547-1.5720955-1.76100087-3.3615817-2.16351782-5.3685121-.53668928-2.4083166-.58700315-5.1845287-.15094311-8.3287198.43606004-3.144191 1.25785317-6.4054041 2.46540404-9.783737s2.71696682-6.6897185 4.52829313-9.934256c1.81132631-3.2445376 3.79033833-6.1378189 5.93709543-8.67993084 2.1467571-2.5421119 4.410881-4.59918475 6.7924397-6.17128027s4.7463103-2.35813149 7.0943259-2.35813149c1.0062924 0 2.1970539.28431088 3.5723201.85294118 1.3752663.56863029 2.7001981 1.32121792 3.9748351 2.25778546 1.274637.93656755 2.3647708 1.99019023 3.2704339 3.16089966.9056632 1.17070943 1.358488 2.35812546 1.358488 3.56228373 0 1.60554437-.5534525 3.52882387-1.6603742 5.76989617-1.1069216 2.2410724-2.4486247 4.3984902-4.0251494 6.4723184-1.5765248 2.0738281-3.2033397 3.8298659-4.8804937 5.2681661-1.677154 1.4383001-3.0859422 2.1574394-4.2264069 2.1574394.6708616-.9365675 1.3920269-2.1574319 2.1635178-3.6626298.7714908-1.5051978 1.5261988-3.1274422 2.2641465-4.866782.7379478-1.7393397 1.4087993-3.4953775 2.0125748-5.2681661.6037754-1.7727885 1.0398289-3.3615846 1.3081735-4.7664359.2683447-1.40485135.3186585-2.55881905.1509431-3.46193775-.1677154-.90311871-.6540827-1.35467128-1.4591166-1.35467128-2.3480156 0-4.7798524 1.13724353-7.2955834 3.4117647-2.515731 2.27452113-4.8637113 5.13435413-7.0440115 8.57958473-2.1803002 3.4452307-4.0586845 7.1747205-5.6352093 11.1885814-1.57652471 4.0138609-2.5995733 7.7433507-3.06917642 11.1885813-.46960311 3.4452306-.25157636 6.3050636.65408679 8.5795848.90566315 2.2745211 2.73373363 3.4117647 5.48426613 3.4117647 1.4758955 0 3.3542798-.7693118 5.6352092-2.3079585s4.6624524-3.4284779 7.1446403-5.6695502 4.8972534-4.6159044 7.245269-7.1245675c2.3480156-2.508663 4.3270276-4.7329776 5.9370954-6.6730103z"/><path d="m81.743169 17.254902c.2671538 0 .7012721.1307176 1.302368.3921568.6010958.2614392 1.2522733.6045731 1.9535518 1.0294118.7012786.4248387 1.352456.8986902 1.9535519 1.4215686s1.0352142 1.0784284 1.3023679 1.6666667c-.5343074.9150372-1.2188786 2.2712328-2.053734 4.0686274s-1.703092 3.8398579-2.6047358 6.127451c-.9016439 2.2875932-1.7531836 4.6895299-2.5546448 7.2058824-.8014612 2.5163524-1.4025481 4.983648-1.8032787 7.4019608 1.0018265-1.1111167 2.0871223-2.4509726 3.2559198-4.0196079 1.1687976-1.5686353 2.2707902-3.1535868 3.3060109-4.754902 1.0352207-1.6013151 1.9702447-3.1372475 2.8051002-4.6078431.8348554-1.4705956 1.4192454-2.6633941 1.7531875-3.5784314.5343075.0653598.7346698.7026084.6010929 1.9117647-.1335768 1.2091564-.5009077 2.6797299-1.1020036 4.4117647-.6010959 1.7320349-1.3524545 3.611101-2.2540983 5.637255-.9016439 2.0261539-1.8366679 3.8888803-2.8051002 5.5882352-.9684322 1.6993549-1.9201531 3.1209094-2.8551912 4.2647059-.935038 1.1437966-1.7030935 1.7156863-2.3041894 1.7156863s-1.3357576-.2124162-2.2040072-.6372549-1.7030925-.9313696-2.5045537-1.5196078c-.8014612-.5882383-1.4860324-1.2091471-2.0537341-1.8627451-.5677016-.6535981-.8515482-1.2091481-.8515482-1.6666667 0-1.0457569.1502717-2.2875745.4508197-3.7254902.3005479-1.4379157.6845756-2.973848 1.1520947-4.6078431.467519-1.6339951 1.0185153-3.3006451 1.6530054-5s1.2522738-3.3660049 1.8533697-5c-1.2021918 1.6993549-2.5045467 3.7908372-3.9071037 6.2745098-1.4025571 2.4836725-2.7383057 4.9999872-4.0072859 7.5490196-1.2689803 2.5490323-2.3709729 4.9182897-3.3060109 7.1078431-.9350381 2.1895534-1.536125 3.8398637-1.8032787 4.9509804-.5343074 0-1.1520912-.2614353-1.8533697-.7843137-.7012786-.5228785-1.3691529-1.1437873-2.003643-1.8627451-.6344901-.7189579-1.1687895-1.4705843-1.6029143-2.254902-.4341249-.7843176-.651184-1.4379059-.651184-1.9607843 0-1.6993549.2003623-3.692799.6010929-5.9803922.4007306-2.2875931.9183332-4.6568504 1.5528233-7.1078431.6344901-2.4509926 1.3357581-4.8856088 2.1038251-7.3039216.768067-2.4183127 1.5027287-4.5588142 2.2040072-6.4215686.7012786-1.8627544 1.352456-3.382347 1.9535519-4.5588235s1.0686079-1.7647059 1.4025501-1.7647059c.6010959 0 1.2689702.1143779 2.0036429.3431373.7346728.2287593 1.4359408.4901946 2.1038251.7843137.6678844.2941191 1.2522744.6209132 1.7531876.9803921.5009133.359479.8515473.6699334 1.0519126.9313726-.4007306.5882382-.9183332 1.5359412-1.5528233 2.8431372-.6344901 1.3071961-1.3190613 2.8921476-2.053734 4.754902-.7346728 1.8627544-1.5027282 3.9705765-2.3041894 6.3235294-.8014612 2.352953-1.536123 4.8365882-2.2040073 7.4509804 1.2021918-2.6143922 2.5713341-5.2450848 4.1074681-7.8921569 1.5361339-2.647072 3.0388511-5.0163294 4.5081966-7.1078431s2.8050942-3.8071828 4.0072859-5.1470588c1.2021918-1.339876 2.0370347-2.0098039 2.5045537-2.0098039z"/><path d="m86.4048035 13.3207885c-1.5019145-.1314224-2.6609834-.5913939-3.4772413-1.3799283s-1.0937814-1.3470712-.8325788-1.6756272c1.3060126-.0657112 3.0038035-.1807041 5.0934237-.3449821 2.0896202-.16427801 5.2566534-.31212599 9.5011944-.44354839.9795095-2.56273683 1.8610548-4.61618105 2.6446624-6.16039427.7836071-1.54421321 1.3386541-2.31630824 1.6651581-2.31630824.522405 0 1.142751.11499288 1.861058.34498208s1.420279.52568517 2.105935.88709677c.685657.36141161 1.306003.72281779 1.861059 1.08422939.555055.36141161.897878.67353513 1.02848.93637993-.326503.32855601-.734626.90352039-1.224381 1.7249104s-1.028477 1.889181-1.616183 3.20340501c3.591535-.0657112 6.758568-.08213875 9.501195-.04928315 2.742626.0328556 4.505717.21355869 5.289324.5421147.326504.1314224.636677.42711837.93053.88709677s.538726.952805.734628 1.4784946.342826 1.0349438.440777 1.5277778.114276.8378126.048976 1.0349462c-.653007-.1971336-1.599852-.3778367-2.840564-.5421147s-2.693629-.2792708-4.358795-.344982-3.493556-.1314215-5.485226-.1971327c-1.991669-.0657112-3.999633-.0985663-6.023953-.0985663-.914209 2.3656033-1.877379 4.9940119-2.889538 7.8853047-1.0121601 2.8912928-2.0079798 5.831825-2.9874893 8.8216846s-1.8937046 5.9632468-2.7426128 8.9202509c-.8489082 2.957004-1.5672044 5.6511228-2.1549101 8.0824373 1.1101108-1.1828017 2.2855045-2.5791437 3.5262165-4.1890681 1.240712-1.6099245 2.4161057-3.2033972 3.5262165-4.780466 1.1101112-1.5770688 2.0896052-3.0555486 2.9385142-4.4354839.848908-1.3799352 1.436605-2.4970088 1.763108-3.3512544.653006.1314224.86523.8378072.636678 2.1191756-.228553 1.2813684-.75095 2.8748411-1.567208 4.7804659-.816258 1.9056249-1.812077 3.9590691-2.987489 6.1603943-1.1754109 2.2013252-2.3671296 4.2219143-3.5751913 6.061828-1.2080616 1.8399136-2.3344806 3.3841036-3.3792907 4.6326164-1.0448101 1.2485129-1.828406 1.8727599-2.350811 1.8727599-.2612025 0-.7183001-.2464133-1.3713064-.7392473s-1.3060029-1.1335086-1.9590092-1.922043-1.2243782-1.6099121-1.714133-2.4641577c-.4897547-.8542456-.7019786-1.6099131-.636678-2.2670251.2612026-2.3656032.7346251-5.0432945 1.4202817-8.0331541.6856566-2.9898597 1.4855773-6.0453847 2.3997862-9.1666667.9142088-3.121282 1.8937036-6.2260897 2.9385137-9.3145161 1.0448101-3.0884265 2.0569547-5.9468208 3.0364642-8.5752689h-3.7221174-2.2528605c-.5877057 0-1.0774531-.0164275-1.4692569-.0492831s-.8162515-.0821383-1.2733559-.1478495z"/><path d="m136 24.029703c-.333335.5280554-.899996 1.1386104-1.7 1.8316831-.800004.6930728-1.733328 1.3696337-2.8 2.029703s-2.249994 1.2871258-3.55 1.8811881c-1.300007.5940624-2.61666 1.089107-3.95 1.4851485-.266668 2.7722911-.866662 5.6765525-1.8 8.7128713s-2.06666 5.8250698-3.4 8.3663367c-1.33334 2.5412668-2.799992 4.6204539-4.4 6.2376237s-3.199992 2.4257426-4.8 2.4257426c-.66667 0-1.549995-.1980178-2.65-.5940594-1.100006-.3960416-2.166662-1.023098-3.2-1.8811881-1.033339-.8580901-1.916663-1.8976837-2.65-3.1188119s-1.1-2.6897604-1.1-4.4059406.199998-3.6633554.6-5.8415842c.400002-2.1782287.949996-4.3729262 1.65-6.5841584.700003-2.2112322 1.566662-4.3729267 2.6-6.4851485s2.149994-3.9933911 3.35-5.6435643c1.200006-1.6501733 2.483327-2.9702921 3.85-3.9603961 1.366674-.9901039 2.783326-1.4851485 4.25-1.4851485.733337 0 1.449996.2475223 2.15.7425743.700003.4950519 1.38333 1.1221084 2.05 1.8811881s1.283331 1.5841539 1.85 2.4752475 1.083331 1.6996663 1.55 2.4257426l.3 2.2772277c1.733342-.1320139 3.449991-.4290406 5.15-.8910891s3.916653-1.089105 6.65-1.8811881zm-19.5 8.3168317c-1.000005-.1980208-1.5-1.1881099-1.5-2.9702971 0-.7260762.083333-1.5511505.25-2.4752475.166668-.924097.349999-1.8811832.55-2.8712871-.933338 1.1221178-1.883328 2.7557648-2.85 4.9009901-.966671 2.1452252-1.833329 4.4389317-2.6 6.8811881-.76667 2.4422564-1.399997 4.8184703-1.9 7.1287129-.500002 2.3102425-.75 4.1584089-.75 5.5445544 0 1.5841664.33333 2.3762376 1 2.3762376s1.449996-.544549 2.35-1.6336633c.900005-1.0891144 1.783329-2.5247436 2.65-4.3069307s1.699996-3.7788669 2.5-5.990099c.800004-2.2112322 1.433331-4.4389327 1.9-6.6831683-.333335.0660069-.649998.0990099-.95.0990099z"/><path d="m160 21.2c-1.140045 1.133339-2.833322 2.566658-5.079882 4.3-2.246559 1.733342-4.778092 3.133328-7.594674 4.2-.737676 1.33334-1.508872 2.5166615-2.313609 3.55-.804738 1.0333385-1.542403 1.55-2.213018 1.55-.603553-.266668-1.056211-.833329-1.357988-1.7s-.519723-1.799995-.653846-2.8-.150888-1.9166625-.050296-2.75.251478-1.349999.452663-1.55c.670614 0 1.575931-.099999 2.715976-.3.268246-1.066672.385602-2.0166625.352071-2.85s-.117356-1.449998-.251479-1.85c-.536492 0-1.123271.199998-1.760355.6s-1.274159.9166635-1.911243 1.55-1.190333 1.383329-1.659763 2.25c-.469431.866671-.771203 1.766662-.905326 2.7-.201184 1.266673.016763 2.6499925.653847 4.15s1.374749 2.9999925 2.213017 4.5c.838269 1.5000075 1.609464 2.983326 2.31361 4.45.704145 1.466674 1.022682 2.766661.955621 3.9-.067062.800004-.385599 1.8166605-.955621 3.05-.570023 1.2333395-1.341218 2.4333275-2.31361 3.6-.972391 1.1666725-2.145949 2.1666625-3.52071 3-1.37476.8333375-2.900386 1.25-4.576923 1.25-1.274168 0-2.430961-.6499935-3.470414-1.95s-1.894474-2.8333245-2.565088-4.6c-.670615-1.7666755-1.123273-3.5666575-1.357989-5.4-.234715-1.8333425-.184419-3.249995.150888-4.25.670615 1.866676 1.559166 3.46666 2.66568 4.8 1.106515 1.33334 2.213013 2.399996 3.319527 3.2s2.112421 1.3166655 3.017751 1.55 1.52564.183335 1.860947-.15c.536492-.600003.502962-1.633326-.100592-3.1-.603553-1.466674-1.374748-3.1833235-2.313609-5.15s-1.827412-4.0666555-2.665681-6.3c-.838268-2.2333445-1.223866-4.383323-1.156804-6.45.067061-2.200011.519719-4.1166585 1.357988-5.75.838268-1.6333415 1.79388-2.9999945 2.866864-4.1 1.072983-1.1000055 2.162716-1.9333305 3.26923-2.5 1.106515-.5666695 1.995066-.85 2.665681-.85s1.575931.2833305 2.715976.85 2.263308 1.249996 3.369822 2.05c1.106515.800004 2.045361 1.6166625 2.816568 2.45s1.156805 1.516664 1.156805 2.05c0 .400002-.167651 1.099995-.502958 2.1 1.140045-.266668 2.263308-.5499985 3.369822-.85s2.129187-.5999985 3.068047-.9c.938861-.3000015 1.760352-.583332 2.464497-.85.704146-.266668 1.190334-.499999 1.45858-.7z"/><path d="m183 24.029703c-.333335.5280554-.899996 1.1386104-1.7 1.8316831-.800004.6930728-1.733328 1.3696337-2.8 2.029703s-2.249994 1.2871258-3.55 1.8811881c-1.300007.5940624-2.61666 1.089107-3.95 1.4851485-.266668 2.7722911-.866662 5.6765525-1.8 8.7128713s-2.06666 5.8250698-3.4 8.3663367c-1.33334 2.5412668-2.799992 4.6204539-4.4 6.2376237s-3.199992 2.4257426-4.8 2.4257426c-.66667 0-1.549994-.1980178-2.65-.5940594-1.100005-.3960416-2.166661-1.023098-3.2-1.8811881-1.033338-.8580901-1.916663-1.8976837-2.65-3.1188119s-1.1-2.6897604-1.1-4.4059406.199998-3.6633554.6-5.8415842c.400002-2.1782287.949997-4.3729262 1.65-6.5841584.700004-2.2112322 1.566662-4.3729267 2.6-6.4851485 1.033339-2.1122218 2.149994-3.9933911 3.35-5.6435643 1.200006-1.6501733 2.483327-2.9702921 3.85-3.9603961 1.366674-.9901039 2.783326-1.4851485 4.25-1.4851485.733337 0 1.449997.2475223 2.15.7425743.700004.4950519 1.38333 1.1221084 2.05 1.8811881s1.28333 1.5841539 1.85 2.4752475 1.083331 1.6996663 1.55 2.4257426l.3 2.2772277c1.733342-.1320139 3.449991-.4290406 5.15-.8910891 1.700008-.4620485 3.916653-1.089105 6.65-1.8811881zm-19.5 8.3168317c-1.000005-.1980208-1.5-1.1881099-1.5-2.9702971 0-.7260762.083333-1.5511505.25-2.4752475.166668-.924097.349999-1.8811832.55-2.8712871-.933338 1.1221178-1.883328 2.7557648-2.85 4.9009901-.966671 2.1452252-1.833329 4.4389317-2.6 6.8811881-.76667 2.4422564-1.399997 4.8184703-1.9 7.1287129-.500002 2.3102425-.75 4.1584089-.75 5.5445544 0 1.5841664.33333 2.3762376 1 2.3762376s1.449996-.544549 2.35-1.6336633c.900005-1.0891144 1.783329-2.5247436 2.65-4.3069307s1.699996-3.7788669 2.5-5.990099c.800004-2.2112322 1.433331-4.4389327 1.9-6.6831683-.333335.0660069-.649998.0990099-.95.0990099z"/></g></svg>