<svg xmlns="http://www.w3.org/2000/svg" width="32" height="32" viewBox="0 0 32 32">
    <path fill="#FEFEFE" fill-rule="evenodd" d="M27 10.02a8.592 8.592 0 0 1-2.474.678 4.309 4.309 0 0 0 1.893-2.382 8.567 8.567 0 0 1-2.736 1.044 4.308 4.308 0 0 0-7.34 3.93 12.227 12.227 0 0 1-8.881-4.504 4.306 4.306 0 0 0-.583 2.169c0 1.493.76 2.812 1.917 3.585a4.307 4.307 0 0 1-1.953-.537v.053a4.309 4.309 0 0 0 3.458 4.224 4.215 4.215 0 0 1-1.137.152c-.277 0-.548-.026-.81-.077a4.307 4.307 0 0 0 4.025 2.99 8.645 8.645 0 0 1-5.351 1.846A8.84 8.84 0 0 1 6 23.13a12.212 12.212 0 0 0 6.604 1.935c7.926 0 12.259-6.564 12.259-12.258 0-.187-.004-.374-.013-.557a8.746 8.746 0 0 0 2.15-2.23"/>
</svg>
